<svg xmlns="http://www.w3.org/2000/svg" viewBox="0 0 64 64">
  <defs>
    <linearGradient id="bg" x1="8" x2="56" y1="6" y2="58" gradientUnits="userSpaceOnUse">
      <stop offset="0" stop-color="#5eead4"/>
      <stop offset=".48" stop-color="#2dd4bf"/>
      <stop offset="1" stop-color="#14b8a6"/>
    </linearGradient>
  </defs>
  <rect width="56" height="56" x="4" y="4" rx="15" fill="url(#bg)"/>
  <circle cx="19" cy="15" r="16" fill="#fff" opacity=".08"/>
  <path
    d="M44 18H20a6 6 0 0 0-6 6v16a6 6 0 0 0 6 6h5l5 6 6-6h8a6 6 0 0 0 6-6V24a6 6 0 0 0-6-6Z"
    fill="#fff"
    fill-opacity=".96"
  />
  <circle cx="26" cy="33" r="3.2" fill="#14b8a6"/>
  <circle cx="32" cy="33" r="3.2" fill="#14b8a6"/>
  <circle cx="38" cy="33" r="3.2" fill="#14b8a6"/>
</svg>
